<svg width="200" height="200" viewBox="0 0 200 200" fill="none" xmlns="http://www.w3.org/2000/svg">
  <circle cx="100" cy="100" r="90" fill="#F3F4F6"/>
  
  <!-- Street corner -->
  <path d="M40 140H160V160H40V140Z" fill="#E5E7EB"/>
  <path d="M140 100V140" stroke="#E5E7EB" stroke-width="20" stroke-linecap="round"/>
  
  <!-- Sidewalk -->
  <path d="M30 135H170" stroke="#D1D5DB" stroke-width="2"/>
  
  <!-- Tree -->
  <g transform="translate(60, 80)">
    <rect x="8" y="20" width="4" height="40" fill="#92400E"/>
    <circle cx="10" cy="15" r="25" fill="#16A34A" opacity="0.4"/>
    <circle cx="-5" cy="25" r="20" fill="#16A34A" opacity="0.3"/>
    <circle cx="25" cy="25" r="20" fill="#16A34A" opacity="0.3"/>
  </g>
  
  <!-- Magnifying Glass (Searching/Empty motif) -->
  <g transform="translate(110, 110)">
    <circle cx="20" cy="20" r="15" stroke="#111827" stroke-width="3" fill="white"/>
    <path d="M32 32L45 45" stroke="#111827" stroke-width="4" stroke-linecap="round"/>
    <path d="M15 15L25 25" stroke="#16A34A" stroke-width="2" stroke-linecap="round" opacity="0.5"/>
  </g>
  
  <!-- Clean Sparkles -->
  <path d="M150 60L152 64H157L154 67L155 71L151 69L147 71L148 67L145 64H150V60Z" fill="#16A34A" opacity="0.6"/>
  <path d="M170 80L171 82H174L172 84L172.5 86L170 85L167.5 86L168 84L166 82H169L170 80Z" fill="#16A34A" opacity="0.4"/>
</svg>
