<svg width="200" height="200" viewBox="0 0 200 200" fill="none" xmlns="http://www.w3.org/2000/svg">
  <circle cx="100" cy="100" r="90" fill="#FEF3C7" fill-opacity="0.5"/>
  
  <!-- Floating Wallet (Isometric) -->
  <g transform="translate(60, 60)">
    <path d="M0 40V10L40 0V30L0 40Z" fill="#111827" stroke="#111827" stroke-width="2"/>
    <path d="M40 0L80 10V40L40 30V0Z" fill="#374151" stroke="#111827" stroke-width="2"/>
    <path d="M0 10L40 0L80 10L40 20L0 10Z" fill="#111827"/>
    
    <!-- Cash peaking out -->
    <path d="M35 -5L45 -10L55 -5V10L35 15V-5Z" fill="#16A34A" opacity="0.4"/>
    
    <!-- Card slot -->
    <rect x="45" y="15" width="20" height="4" rx="1" fill="#F59E0B"/>
  </g>
  
  <!-- Floating Coins -->
  <circle cx="50" cy="130" r="15" fill="white" stroke="#F59E0B" stroke-width="3"/>
  <path d="M50 122V138M44 130H56" stroke="#F59E0B" stroke-width="3" stroke-linecap="round"/>
  
  <circle cx="150" cy="110" r="10" fill="white" stroke="#F59E0B" stroke-width="2"/>
  <path d="M150 105V115M146 110H154" stroke="#F59E0B" stroke-width="2" stroke-linecap="round"/>
  
  <!-- Empty Chart Placeholder -->
  <g transform="translate(110, 140)">
    <path d="M0 30H60" stroke="#111827" stroke-width="2" stroke-linecap="round"/>
    <path d="M10 30V20M25 30V15M40 30V25M55 30V18" stroke="#E5E7EB" stroke-width="6" stroke-linecap="round"/>
  </g>
</svg>
