<svg xmlns="http://www.w3.org/2000/svg" viewBox="0 0 360 280">
  <!-- Sky background -->
  <rect width="360" height="220" fill="#EBF4FF"/>
  <!-- Sun -->
  <circle cx="300" cy="50" r="30" fill="#FEF3C7"/>
  <circle cx="300" cy="50" r="22" fill="#FCD34D"/>
  <!-- Clouds -->
  <g opacity="0.85">
    <ellipse cx="60" cy="38" rx="28" ry="16" fill="white"/>
    <ellipse cx="85" cy="32" rx="22" ry="14" fill="white"/>
    <ellipse cx="40" cy="44" rx="18" ry="12" fill="white"/>
  </g>
  <g opacity="0.7">
    <ellipse cx="200" cy="28" rx="22" ry="12" fill="white"/>
    <ellipse cx="220" cy="22" rx="18" ry="11" fill="white"/>
    <ellipse cx="183" cy="34" rx="14" ry="10" fill="white"/>
  </g>
  <!-- Building left (tall) -->
  <rect x="28" y="70" width="52" height="148" rx="4" fill="#052659"/>
  <!-- Building left windows -->
  <rect x="36" y="82" width="14" height="14" rx="2" fill="#C1E8FF" opacity="0.7"/>
  <rect x="56" y="82" width="14" height="14" rx="2" fill="#C1E8FF" opacity="0.7"/>
  <rect x="36" y="104" width="14" height="14" rx="2" fill="#C1E8FF" opacity="0.7"/>
  <rect x="56" y="104" width="14" height="14" rx="2" fill="#C1E8FF" opacity="0.3"/>
  <rect x="36" y="126" width="14" height="14" rx="2" fill="#C1E8FF" opacity="0.7"/>
  <rect x="56" y="126" width="14" height="14" rx="2" fill="#C1E8FF" opacity="0.7"/>
  <rect x="36" y="148" width="14" height="14" rx="2" fill="#C1E8FF" opacity="0.4"/>
  <rect x="56" y="148" width="14" height="14" rx="2" fill="#C1E8FF" opacity="0.7"/>
  <rect x="36" y="170" width="14" height="14" rx="2" fill="#C1E8FF" opacity="0.7"/>
  <rect x="56" y="170" width="14" height="14" rx="2" fill="#C1E8FF" opacity="0.3"/>
  <!-- Building middle-left (medium) -->
  <rect x="86" y="104" width="44" height="114" rx="4" fill="#5483B3"/>
  <rect x="93" y="114" width="12" height="12" rx="2" fill="#C1E8FF" opacity="0.7"/>
  <rect x="112" y="114" width="12" height="12" rx="2" fill="#C1E8FF" opacity="0.4"/>
  <rect x="93" y="134" width="12" height="12" rx="2" fill="#C1E8FF" opacity="0.7"/>
  <rect x="112" y="134" width="12" height="12" rx="2" fill="#C1E8FF" opacity="0.7"/>
  <rect x="93" y="154" width="12" height="12" rx="2" fill="#C1E8FF" opacity="0.4"/>
  <rect x="112" y="154" width="12" height="12" rx="2" fill="#C1E8FF" opacity="0.7"/>
  <rect x="93" y="174" width="12" height="12" rx="2" fill="#C1E8FF" opacity="0.7"/>
  <rect x="112" y="174" width="12" height="12" rx="2" fill="#C1E8FF" opacity="0.3"/>
  <!-- Building right (medium-tall) -->
  <rect x="276" y="84" width="56" height="134" rx="4" fill="#052659"/>
  <rect x="284" y="96" width="14" height="12" rx="2" fill="#C1E8FF" opacity="0.4"/>
  <rect x="304" y="96" width="14" height="12" rx="2" fill="#C1E8FF" opacity="0.7"/>
  <rect x="284" y="116" width="14" height="12" rx="2" fill="#C1E8FF" opacity="0.7"/>
  <rect x="304" y="116" width="14" height="12" rx="2" fill="#C1E8FF" opacity="0.7"/>
  <rect x="284" y="136" width="14" height="12" rx="2" fill="#C1E8FF" opacity="0.3"/>
  <rect x="304" y="136" width="14" height="12" rx="2" fill="#C1E8FF" opacity="0.7"/>
  <rect x="284" y="156" width="14" height="12" rx="2" fill="#C1E8FF" opacity="0.7"/>
  <rect x="304" y="156" width="14" height="12" rx="2" fill="#C1E8FF" opacity="0.4"/>
  <!-- Building far-right (short) -->
  <rect x="316" y="128" width="36" height="90" rx="4" fill="#7DA0CA"/>
  <rect x="323" y="138" width="10" height="10" rx="2" fill="#C1E8FF" opacity="0.7"/>
  <rect x="338" y="138" width="10" height="10" rx="2" fill="#C1E8FF" opacity="0.4"/>
  <rect x="323" y="156" width="10" height="10" rx="2" fill="#C1E8FF" opacity="0.7"/>
  <rect x="338" y="156" width="10" height="10" rx="2" fill="#C1E8FF" opacity="0.7"/>
  <!-- Trees left -->
  <rect x="148" y="168" width="8" height="50" rx="4" fill="#0B3B2E"/>
  <circle cx="152" cy="154" r="22" fill="#19B661"/>
  <circle cx="140" cy="162" r="16" fill="#19B661"/>
  <circle cx="164" cy="162" r="16" fill="#15803D"/>
  <!-- Trees right -->
  <rect x="240" y="175" width="8" height="43" rx="4" fill="#0B3B2E"/>
  <circle cx="244" cy="162" r="19" fill="#19B661"/>
  <circle cx="232" cy="169" r="14" fill="#15803D"/>
  <circle cx="256" cy="169" r="14" fill="#19B661"/>
  <!-- Ground / road area -->
  <rect x="0" y="218" width="360" height="62" fill="#D1D5DB"/>
  <!-- Road -->
  <rect x="0" y="224" width="360" height="30" fill="#4B5563"/>
  <!-- Road markings -->
  <rect x="30" y="237" width="40" height="4" rx="2" fill="white" opacity="0.6"/>
  <rect x="100" y="237" width="40" height="4" rx="2" fill="white" opacity="0.6"/>
  <rect x="170" y="237" width="40" height="4" rx="2" fill="white" opacity="0.6"/>
  <rect x="240" y="237" width="40" height="4" rx="2" fill="white" opacity="0.6"/>
  <rect x="310" y="237" width="40" height="4" rx="2" fill="white" opacity="0.6"/>
  <!-- BinLink truck body -->
  <rect x="156" y="200" width="80" height="30" rx="5" fill="#5483B3"/>
  <!-- Cab -->
  <rect x="216" y="194" width="28" height="36" rx="5" fill="#052659"/>
  <!-- Cab window -->
  <rect x="220" y="199" width="18" height="12" rx="3" fill="#C1E8FF" opacity="0.8"/>
  <!-- Truck wheels -->
  <circle cx="172" cy="232" r="10" fill="#1F2937"/>
  <circle cx="172" cy="232" r="5" fill="#6B7280"/>
  <circle cx="228" cy="232" r="10" fill="#1F2937"/>
  <circle cx="228" cy="232" r="5" fill="#6B7280"/>
  <!-- BinLink logo on truck side -->
  <rect x="162" y="206" width="48" height="18" rx="3" fill="#052659" opacity="0.5"/>
  <circle cx="178" cy="215" r="5" fill="#19B661"/>
  <!-- Footpath -->
  <rect x="0" y="254" width="360" height="26" fill="#E5E7EB"/>
  <!-- Small bin on street -->
  <rect x="270" y="238" width="14" height="16" rx="3" fill="#5483B3"/>
  <rect x="268" y="235" width="18" height="5" rx="2" fill="#052659"/>
</svg>
