<svg xmlns="http://www.w3.org/2000/svg" width="360" height="260" viewBox="0 0 360 260" role="img" aria-label="BinLink Collector grow_rating">
<defs>
<filter id="shadow" x="-25%" y="-25%" width="150%" height="160%"><feDropShadow dx="0" dy="9" stdDeviation="8" flood-color="#0B3B2E" flood-opacity=".16"/></filter>
<linearGradient id="panel" x1="0" y1="0" x2="1" y2="1"><stop stop-color="#FAFAF9"/><stop offset="1" stop-color="#E9F7F0"/></linearGradient>
</defs>
<rect width="360" height="260" rx="28" fill="#F5F1EA"/>
<circle cx="308" cy="48" r="32" fill="#FAFAF9" opacity=".9"/><path d="M0 196c62-22 117-18 174-2 60 16 122 19 186-10v76H0z" fill="#DDF7E8"/>
<g opacity=".9"><rect x="230" y="72" width="38" height="98" rx="5" fill="#D7E7DF"/><rect x="276" y="56" width="54" height="114" rx="6" fill="#CFE2D9"/><rect x="190" y="100" width="29" height="70" rx="5" fill="#E0ECE6"/></g>
<g filter="url(#shadow)"><ellipse cx="250" cy="200" rx="78" ry="15" fill="#0B3B2E" opacity=".13"/><rect x="202" y="116" width="96" height="66" rx="12" fill="#3B82F6"/><rect x="216" y="96" width="50" height="27" rx="9" fill="#0B3B2E"/><rect x="272" y="136" width="42" height="46" rx="8" fill="#111827"/><path d="M218 133h48M218 151h38" stroke="#FAFAF9" stroke-width="6" stroke-linecap="round" opacity=".78"/><circle cx="226" cy="187" r="10" fill="#111827"/><circle cx="288" cy="187" r="10" fill="#111827"/></g>
<g filter="url(#shadow)"><circle cx="62" cy="112" r="11" fill="#7A4B32"/><path d="M47 95h30l-4 15h-22z" fill="#19B661"/><path d="M46 126h32l8 55h-48z" fill="#7DDC91"/><path d="M51 133h22l5 47h-32z" fill="#111827"/><path d="M44 181h14v38h-14zM66 181h14v38h-14z" fill="#1F2937"/></g><text x="26" y="42" font-family="Inter,Arial" font-size="18" font-weight="800" fill="#0B3B2E">Grow rating</text>
</svg>