<svg xmlns="http://www.w3.org/2000/svg" width="360" height="260" viewBox="0 0 360 260" role="img" aria-label="BinLink no_rewards">
<defs>
<filter id="s" x="-20%" y="-20%" width="140%" height="150%"><feDropShadow dx="0" dy="8" stdDeviation="8" flood-color="#0B3B2E" flood-opacity=".14"/></filter>
<linearGradient id="soft" x1="0" y1="0" x2="1" y2="1"><stop stop-color="#FAFAF9"/><stop offset="1" stop-color="#E9F7F0"/></linearGradient>
</defs><rect width="360" height="260" rx="26" fill="#F5F1EA"/>
<circle cx="305" cy="52" r="34" fill="#FAFAF9" opacity=".9"/><path d="M0 196c58-24 120-16 174 0s126 22 186-6v70H0z" fill="#DDF7E8"/>
<g opacity=".88"><rect x="205" y="82" width="38" height="82" rx="5" fill="#D7E7DF"/><rect x="250" y="62" width="54" height="102" rx="6" fill="#CFE2D9"/><rect x="312" y="96" width="28" height="68" rx="5" fill="#DDEBE5"/></g>
<g filter="url(#s)"><ellipse cx="235" cy="190" rx="72" ry="15" fill="#0B3B2E" opacity=".12"/><rect x="218" y="121" width="82" height="64" rx="12" fill="#6B7280"/><rect x="232" y="105" width="52" height="24" rx="10" fill="#0B3B2E"/><circle cx="236" cy="190" r="9" fill="#1F2937"/><circle cx="282" cy="190" r="9" fill="#1F2937"/><path d="M235 136h48" stroke="#FAFAF9" stroke-width="5" stroke-linecap="round"/></g>
<g><circle cx="69" cy="112" r="11" fill="#7A4B32"/><path d="M54 127h30l8 53h-46z" fill="#19B661" filter="url(#s)"/><path d="M51 180h14v34h-14zM73 180h14v34h-14z" fill="#1F2937"/></g><text x="28" y="42" font-family="Inter,Arial" font-size="18" font-weight="700" fill="#0B3B2E">no rewards</text></svg>