<svg xmlns="http://www.w3.org/2000/svg" viewBox="0 0 240 200">
  <rect width="240" height="200" fill="none"/>
  <!-- House -->
  <polygon points="120,30 60,80 180,80" fill="#052659"/>
  <rect x="70" y="80" width="100" height="80" rx="4" fill="#5483B3" opacity="0.7"/>
  <rect x="100" y="115" width="40" height="45" rx="4" fill="#021024"/>
  <rect x="82" y="90" width="22" height="22" rx="3" fill="#C1E8FF" opacity="0.5"/>
  <rect x="136" y="90" width="22" height="22" rx="3" fill="#C1E8FF" opacity="0.5"/>
  <!-- Truck arriving -->
  <rect x="10" y="128" width="65" height="36" rx="6" fill="#F59E0B"/>
  <rect x="58" y="133" width="28" height="31" rx="4" fill="#D97706"/>
  <rect x="62" y="137" width="20" height="16" rx="2" fill="#1F2937" opacity="0.7"/>
  <circle cx="28" cy="166" r="10" fill="#111827"/>
  <circle cx="28" cy="166" r="5" fill="#374151"/>
  <circle cx="72" cy="166" r="10" fill="#111827"/>
  <circle cx="72" cy="166" r="5" fill="#374151"/>
  <!-- Location pin -->
  <circle cx="190" cy="48" r="18" fill="#F59E0B"/>
  <circle cx="190" cy="44" r="8" fill="white"/>
  <polygon points="190,75 182,55 198,55" fill="#F59E0B"/>
</svg>
