<svg xmlns="http://www.w3.org/2000/svg" viewBox="0 0 240 200">
  <rect width="240" height="200" fill="none"/>
  <!-- Wrench -->
  <rect x="105" y="30" width="30" height="100" rx="12" fill="#4B5563" transform="rotate(45 120 80)"/>
  <circle cx="88" cy="62" r="20" fill="none" stroke="#4B5563" stroke-width="12"/>
  <circle cx="88" cy="62" r="10" fill="#1F2937"/>
  <!-- Gear -->
  <circle cx="155" cy="130" r="28" fill="none" stroke="#F59E0B" stroke-width="10"/>
  <circle cx="155" cy="130" r="12" fill="#F59E0B"/>
  <rect x="148" y="96" width="14" height="14" rx="3" fill="#F59E0B"/>
  <rect x="148" y="150" width="14" height="14" rx="3" fill="#F59E0B"/>
  <rect x="121" y="123" width="14" height="14" rx="3" fill="#F59E0B"/>
  <rect x="175" y="123" width="14" height="14" rx="3" fill="#F59E0B"/>
  <!-- Truck outline -->
  <rect x="25" y="130" width="80" height="40" rx="6" fill="none" stroke="#374151" stroke-width="3"/>
  <circle cx="45" cy="172" r="10" fill="#374151"/>
  <circle cx="85" cy="172" r="10" fill="#374151"/>
  <!-- Warning icon -->
  <polygon points="65,108 45,145 85,145" fill="none" stroke="#F59E0B" stroke-width="3"/>
  <line x1="65" y1="120" x2="65" y2="133" stroke="#F59E0B" stroke-width="3" stroke-linecap="round"/>
  <circle cx="65" cy="139" r="2" fill="#F59E0B"/>
</svg>
