<svg xmlns="http://www.w3.org/2000/svg" viewBox="0 0 240 200">
  <rect width="240" height="200" fill="none"/>
  <!-- Road -->
  <rect x="0" y="150" width="240" height="50" rx="0" fill="#1F2937"/>
  <rect x="100" y="165" width="20" height="8" rx="2" fill="#F59E0B" opacity="0.6"/>
  <rect x="130" y="165" width="20" height="8" rx="2" fill="#F59E0B" opacity="0.6"/>
  <!-- Truck -->
  <rect x="50" y="108" width="100" height="48" rx="8" fill="#F59E0B"/>
  <rect x="128" y="115" width="40" height="41" rx="6" fill="#D97706"/>
  <rect x="134" y="120" width="28" height="22" rx="3" fill="#1F2937" opacity="0.7"/>
  <circle cx="78" cy="158" r="12" fill="#111827"/>
  <circle cx="78" cy="158" r="6" fill="#374151"/>
  <circle cx="148" cy="158" r="12" fill="#111827"/>
  <circle cx="148" cy="158" r="6" fill="#374151"/>
  <!-- Navigation arrow -->
  <polygon points="120,20 140,60 120,50 100,60" fill="#F59E0B"/>
  <!-- Route dots -->
  <circle cx="120" cy="75" r="4" fill="#F59E0B" opacity="0.8"/>
  <circle cx="120" cy="89" r="4" fill="#F59E0B" opacity="0.6"/>
  <circle cx="120" cy="103" r="4" fill="#F59E0B" opacity="0.4"/>
</svg>
