<svg xmlns="http://www.w3.org/2000/svg" viewBox="0 0 100 100">
  <!-- Circuit chip / microchip icon -->
  <!-- Chip body -->
  <rect x="31" y="10" width="38" height="36" rx="6" fill="#C1E8FF"/>
  <!-- Chip inner die -->
  <rect x="38" y="17" width="24" height="22" rx="3" fill="#052659"/>
  <!-- Circuit traces on die -->
  <rect x="42" y="21" width="6" height="2" rx="1" fill="#5483B3"/>
  <rect x="52" y="21" width="6" height="2" rx="1" fill="#5483B3"/>
  <rect x="42" y="25" width="16" height="2" rx="1" fill="#5483B3"/>
  <rect x="42" y="29" width="10" height="2" rx="1" fill="#5483B3"/>
  <rect x="55" y="29" width="3" height="2" rx="1" fill="#5483B3"/>
  <!-- Legs left -->
  <rect x="22" y="14" width="10" height="3" rx="1.5" fill="#7DA0CA"/>
  <rect x="22" y="21" width="10" height="3" rx="1.5" fill="#7DA0CA"/>
  <rect x="22" y="28" width="10" height="3" rx="1.5" fill="#7DA0CA"/>
  <rect x="22" y="35" width="10" height="3" rx="1.5" fill="#7DA0CA"/>
  <!-- Legs right -->
  <rect x="68" y="14" width="10" height="3" rx="1.5" fill="#7DA0CA"/>
  <rect x="68" y="21" width="10" height="3" rx="1.5" fill="#7DA0CA"/>
  <rect x="68" y="28" width="10" height="3" rx="1.5" fill="#7DA0CA"/>
  <rect x="68" y="35" width="10" height="3" rx="1.5" fill="#7DA0CA"/>
  <!-- Bin lid handle -->
  <rect x="43" y="50" width="14" height="8" rx="4" fill="#021024"/>
  <!-- Bin lid -->
  <rect x="19" y="56" width="62" height="11" rx="5.5" fill="#052659"/>
  <!-- Bin body -->
  <rect x="22" y="65" width="56" height="32" rx="8" fill="#5483B3"/>
  <rect x="22" y="76" width="56" height="2" rx="1" fill="#7DA0CA" opacity="0.4"/>
  <rect x="22" y="85" width="56" height="2" rx="1" fill="#7DA0CA" opacity="0.4"/>
</svg>
